<svg xmlns="http://www.w3.org/2000/svg" version="1.1" xmlns:xlink="http://www.w3.org/1999/xlink" xmlns:svgjs="http://svgjs.dev/svgjs" 
   width="308.7612359841165"
   height="304.915625"
    viewBox="0 0 1000 1000">
    <g transform="matrix(1,0,0,1,0,0.0005983152542512471)">
    <svg viewBox="0 0 280 280" data-background-color="#ffffff" preserveAspectRatio="xMidYMid meet" height="1000" width="1000" xmlns="http://www.w3.org/2000/svg" xmlns:xlink="http://www.w3.org/1999/xlink"><g id="tight-bounds" transform="matrix(1,0,0,1,0,0.00016752827119148606)"><svg viewBox="0 0 280 280" height="280" width="280"><g><svg viewBox="0 0 280 280" height="280" width="280"><g><svg viewBox="0 0 280 280" height="280" width="280"><g id="textblocktransform"><svg viewBox="0 0 280 280" height="280" width="280" id="textblock"><g><svg viewBox="0 0 280 280" height="280" width="280"><g transform="matrix(1,0,0,1,90.50252531694167,90.5026998560397)"><svg viewBox="0 0 98.99494936611664 98.9946002879206" height="98.9946002879206" width="98.99494936611664"><g><svg xmlns="http://www.w3.org/2000/svg" xmlns:xlink="http://www.w3.org/1999/xlink" version="1.1" x="0" y="0" viewBox="7.734947788353146 7.7352458618416104 84.53054425048146 84.53024617699299" enable-background="new 0 0 100 100" xml:space="preserve" height="98.9946002879206" width="98.99494936611664" class="icon-kg-0" data-fill-palette-color="accent" id="kg-0"><g fill="#c53683" data-fill-palette-color="accent"><g fill="#c53683" data-fill-palette-color="accent"><g fill="#c53683" data-fill-palette-color="accent"><path d="M28.368 14.767C42.162 16.327 48.04 25.762 49.69 30.695c1.07 3.198 1.472 5.094 1.472 9.275 0 0.817 0.044 2.076-1.054 2.216-0.77 0.099-1.209-0.509-1.273-1.182-0.289-3.026-1.159-6.569-4.008-9.85-2.253-2.594-7.472-7.802-16.652-7.021-2.669 0.228-5.052-1.868-5.129-4.564C22.964 16.703 25.531 14.446 28.368 14.767z" fill="#c53683" data-fill-palette-color="accent"></path><path d="M71.633 85.232c-13.794-1.561-19.671-10.995-21.322-15.929-1.07-3.198-1.472-5.094-1.472-9.275 0-0.817-0.044-2.076 1.054-2.216 0.77-0.099 1.209 0.509 1.273 1.182 0.289 3.026 1.159 6.569 4.008 9.85 2.253 2.594 7.472 7.802 16.652 7.021 2.669-0.228 5.052 1.868 5.129 4.564C77.037 83.296 74.47 85.553 71.633 85.232z" fill="#c53683" data-fill-palette-color="accent"></path></g><g fill="#c53683" data-fill-palette-color="accent"><path d="M14.768 71.633c1.56-13.794 10.995-19.672 15.928-21.322 3.198-1.07 5.094-1.472 9.276-1.472 0.817 0 2.076-0.045 2.216 1.054 0.098 0.77-0.509 1.209-1.182 1.273-3.026 0.288-6.569 1.159-9.849 4.008-2.594 2.254-7.802 7.473-7.021 16.652 0.228 2.669-1.868 5.052-4.564 5.129C16.704 77.036 14.447 74.47 14.768 71.633z" fill="#c53683" data-fill-palette-color="accent"></path><path d="M85.233 28.367c-1.56 13.794-10.995 19.672-15.928 21.322-3.198 1.07-5.094 1.472-9.276 1.472-0.817 0-2.076 0.045-2.216-1.054-0.098-0.77 0.509-1.209 1.182-1.273 3.026-0.288 6.569-1.159 9.849-4.008 2.594-2.254 7.802-7.473 7.021-16.652-0.228-2.669 1.868-5.052 4.564-5.129C83.297 22.964 85.554 25.53 85.233 28.367z" fill="#c53683" data-fill-palette-color="accent"></path></g></g><g fill="#c53683" data-fill-palette-color="accent"><g fill="#c53683" data-fill-palette-color="accent"><path d="M13.65 30.304c12.726-5.546 22.533-0.314 26.43 3.133 2.526 2.234 3.821 3.676 5.912 7.297 0.409 0.708 1.077 1.775 0.195 2.446-0.617 0.47-1.302 0.164-1.693-0.387-1.763-2.477-4.289-5.109-8.396-6.525-3.249-1.12-10.373-3.021-17.931 2.246-2.198 1.531-5.309 0.907-6.724-1.389C9.938 34.682 11.033 31.444 13.65 30.304z" fill="#c53683" data-fill-palette-color="accent"></path><path d="M86.351 69.695c-12.726 5.546-22.533 0.314-26.43-3.133-2.526-2.234-3.821-3.676-5.912-7.297-0.409-0.708-1.077-1.775-0.196-2.446 0.618-0.47 1.302-0.164 1.694 0.387 1.763 2.477 4.289 5.109 8.396 6.525 3.249 1.12 10.373 3.021 17.931-2.245 2.198-1.532 5.309-0.908 6.724 1.388C90.063 65.317 88.968 68.555 86.351 69.695z" fill="#c53683" data-fill-palette-color="accent"></path></g><g fill="#c53683" data-fill-palette-color="accent"><path d="M30.304 86.351c-5.546-12.726-0.314-22.533 3.133-26.43 2.235-2.525 3.676-3.821 7.298-5.912 0.708-0.409 1.775-1.076 2.445-0.195 0.47 0.617 0.164 1.302-0.387 1.693-2.477 1.764-5.109 4.289-6.525 8.396-1.12 3.248-3.021 10.372 2.246 17.931 1.531 2.198 0.908 5.31-1.389 6.725C34.683 90.062 31.445 88.968 30.304 86.351z" fill="#c53683" data-fill-palette-color="accent"></path><path d="M69.696 13.649c5.546 12.726 0.314 22.533-3.133 26.43-2.234 2.526-3.675 3.821-7.297 5.913-0.708 0.408-1.775 1.076-2.446 0.195-0.47-0.618-0.163-1.303 0.388-1.694 2.477-1.763 5.109-4.288 6.525-8.396 1.12-3.249 3.021-10.372-2.246-17.932-1.532-2.198-0.908-5.309 1.388-6.724C65.318 9.938 68.556 11.032 69.696 13.649z" fill="#c53683" data-fill-palette-color="accent"></path></g></g><g fill="#c53683" data-fill-palette-color="accent"><g fill="#c53683" data-fill-palette-color="accent"><path d="M8.671 51.118c8.248-11.166 19.357-11.539 24.456-10.502 3.305 0.672 5.147 1.272 8.769 3.363 0.708 0.408 1.82 0.999 1.392 2.021-0.299 0.716-1.045 0.793-1.66 0.512-2.765-1.263-6.269-2.28-10.533-1.453-3.374 0.654-10.494 2.57-14.406 10.911-1.138 2.425-4.144 3.44-6.518 2.159C7.646 56.766 6.976 53.414 8.671 51.118z" fill="#c53683" data-fill-palette-color="accent"></path><path d="M91.329 48.882C83.081 60.047 71.971 60.42 66.874 59.383c-3.305-0.672-5.147-1.272-8.769-3.363-0.708-0.408-1.82-0.999-1.393-2.021 0.3-0.716 1.046-0.793 1.66-0.512 2.766 1.264 6.269 2.28 10.534 1.453 3.373-0.654 10.493-2.569 14.406-10.91 1.138-2.426 4.144-3.441 6.517-2.16C92.354 43.233 93.025 46.585 91.329 48.882z" fill="#c53683" data-fill-palette-color="accent"></path></g><g fill="#c53683" data-fill-palette-color="accent"><path d="M51.119 91.329C39.953 83.081 39.58 71.972 40.617 66.874c0.673-3.305 1.272-5.147 3.364-8.77 0.409-0.708 1-1.819 2.02-1.392 0.716 0.3 0.793 1.045 0.512 1.66-1.263 2.765-2.28 6.269-1.453 10.533 0.654 3.374 2.57 10.493 10.911 14.406 2.425 1.138 3.44 4.144 2.159 6.518C56.766 92.354 53.415 93.025 51.119 91.329z" fill="#c53683" data-fill-palette-color="accent"></path><path d="M48.882 8.672c11.166 8.247 11.538 19.356 10.501 24.455-0.672 3.305-1.271 5.147-3.362 8.77-0.409 0.707-1 1.819-2.021 1.392-0.716-0.3-0.792-1.046-0.511-1.661 1.263-2.765 2.28-6.268 1.453-10.533-0.655-3.373-2.57-10.492-10.911-14.406-2.426-1.137-3.44-4.144-2.159-6.517C43.234 7.646 46.585 6.976 48.882 8.672z" fill="#c53683" data-fill-palette-color="accent"></path></g></g></g></svg></g></svg></g><g><path d="M29.363 90.899v0c-0.727-0.594-1.612-1.266-2.653-2.017-1.045-0.759-2.29-1.612-3.734-2.559v0l-9.566-6.307 1.844-4.759 9.679 6.309c2.384 1.548 4.26 2.857 5.628 3.928 1.372 1.079 2.468 2.101 3.288 3.063v0c1.359 1.56 2.155 3.176 2.389 4.848 0.233 1.672-0.06 3.567-0.88 5.685v0c-0.871 2.25-1.939 3.734-3.202 4.452-1.261 0.712-2.823 0.707-4.687-0.015v0c-0.814-0.315-1.741-0.771-2.78-1.368-1.039-0.596-2.284-1.394-3.735-2.394v0c-0.795-0.544-1.914-1.327-3.356-2.351-1.448-1.026-2.397-1.692-2.847-1.997v0l-4.021-2.838c-0.239 2.086 0.121 3.915 1.08 5.486 0.951 1.575 2.406 2.743 4.367 3.503v0c0.452 0.175 0.853 0.296 1.203 0.361 0.347 0.072 0.682 0.094 1.004 0.067v0c0.109-0.013 0.181-0.02 0.216-0.021 0.039 0.008 0.07 0.017 0.094 0.026v0c-0.47 1.213-1.079 2.017-1.83 2.413-0.75 0.396-1.644 0.394-2.681-0.008v0c-1.237-0.479-2.29-1.352-3.159-2.618-0.867-1.272-1.458-2.809-1.774-4.61v0c-0.255-1.472-0.303-2.989-0.141-4.55 0.164-1.553 0.521-3.038 1.07-4.456v0c0.114-0.296 0.225-0.544 0.33-0.746 0.102-0.21 0.258-0.479 0.469-0.807v0c1.246 0.92 2.805 2.072 4.676 3.455 1.877 1.386 3.14 2.309 3.788 2.768v0c2.62 1.923 4.538 3.277 5.754 4.06 1.21 0.781 2.231 1.332 3.063 1.655v0c1.038 0.402 1.879 0.506 2.523 0.311 0.642-0.188 1.116-0.678 1.422-1.468v0c0.514-1.327 0.547-2.435 0.1-3.323-0.441-0.885-1.422-1.945-2.941-3.178z" fill="#ffccea" data-fill-palette-color="primary"></path><path d="M138.831 2.163v0c1.266-0.742 2.615-1.302 4.045-1.68 1.437-0.378 2.83-0.534 4.181-0.469v0c0.168 0.008 0.355 0.024 0.561 0.047 0.2 0.023 0.493 0.056 0.879 0.101v0l-6.827 25.707c0.55 0.15 1.138 0.379 1.764 0.687 0.626 0.309 1.575 0.844 2.847 1.605v0c1.9 1.154 3.359 1.927 4.376 2.319 1.024 0.386 2.008 0.602 2.952 0.648v0c0.549 0.027 1.075 0.003 1.577-0.07 0.502-0.073 0.997-0.195 1.484-0.365v0c-0.278 1.729-0.777 3.091-1.499 4.085-0.728 0.988-1.573 1.459-2.536 1.413v0c-0.866-0.042-1.779-0.319-2.738-0.832-0.953-0.519-2.38-1.611-4.282-3.277v0c-2.179-1.945-3.882-3.228-5.108-3.851-1.226-0.629-2.43-0.972-3.613-1.029v0c-0.22-0.011-0.388-0.019-0.504-0.024-0.123-0.006-0.233 0.002-0.332 0.023v0l6.601-24.824c-1.674 0.599-2.977 1.553-3.908 2.861-0.931 1.309-1.442 2.903-1.533 4.784v0c-0.022 0.459-0.012 0.858 0.03 1.196 0.042 0.345 0.129 0.677 0.263 0.994v0c0.041 0.099 0.066 0.168 0.077 0.208 0.011 0.033 0.016 0.062 0.015 0.088v0c-1.35-0.065-2.319-0.397-2.905-0.995-0.593-0.592-0.861-1.492-0.802-2.701v0c0.058-1.208 0.52-2.394 1.386-3.556 0.873-1.169 2.056-2.2 3.549-3.093z" fill="#ffccea" data-fill-palette-color="primary"></path><path d="M259.428 99.063l9.975-1.447c-0.84-0.745-2.138-1.383-3.893-1.915-1.757-0.538-3.898-0.948-6.422-1.23v0c0.145 0.878 0.241 1.7 0.291 2.469 0.053 0.76 0.069 1.467 0.049 2.123zM272.796 99.384v0c0.175 0.473 0.31 0.961 0.406 1.463 0.098 0.509 0.134 0.971 0.109 1.388v0l-26.986 3.898-1.804-4.889 13.299-1.94c0.073-0.923 0.077-1.773 0.011-2.548-0.072-0.773-0.226-1.592-0.461-2.457v0c-3.287-0.256-6.533-0.261-9.74-0.016-3.206 0.245-5.682 0.69-7.43 1.336v0c-0.407 0.15-0.747 0.321-1.021 0.511-0.28 0.193-0.516 0.415-0.707 0.664v0c-0.636-1.724-0.781-3.022-0.434-3.894 0.353-0.875 1.139-1.538 2.359-1.988v0c1.517-0.56 3.713-0.85 6.589-0.87 2.881-0.022 5.911 0.228 9.09 0.752v0c-0.498-1.126-1.012-1.957-1.541-2.493-0.537-0.54-1.103-0.813-1.699-0.821v0c0.034 0.091-0.05 0.229-0.251 0.413-0.199 0.191-0.41 0.327-0.635 0.41v0c-0.388 0.143-0.774 0.079-1.157-0.193-0.381-0.266-0.672-0.672-0.874-1.219v0c-0.233-0.631-0.245-1.206-0.036-1.724 0.211-0.512 0.623-0.881 1.235-1.108v0c1.177-0.435 2.411-0.138 3.701 0.89 1.295 1.025 2.307 2.524 3.035 4.496v0c0.085 0.231 0.175 0.494 0.27 0.79 0.098 0.302 0.191 0.64 0.281 1.013v0c3.887 0.834 7.094 1.957 9.622 3.369 2.525 1.406 4.115 2.995 4.769 4.767z" fill="#ffccea" data-fill-palette-color="primary"></path><path d="M25.817 188.201v0c0.938-0.051 2.044-0.15 3.319-0.297 1.283-0.143 2.778-0.351 4.483-0.622v0l11.319-1.783 1.843 4.76-11.404 1.857c-2.804 0.462-5.073 0.758-6.805 0.887-1.741 0.126-3.239 0.11-4.494-0.049v0c-2.055-0.238-3.732-0.896-5.031-1.974-1.299-1.079-2.358-2.677-3.179-4.795v0c-0.871-2.25-1.082-4.066-0.632-5.447 0.452-1.375 1.611-2.424 3.475-3.146v0c0.814-0.315 1.806-0.602 2.975-0.861 1.169-0.259 2.627-0.508 4.373-0.747v0c0.954-0.134 2.309-0.308 4.064-0.523 1.761-0.217 2.911-0.364 3.451-0.441v0l4.883-0.612c-1.228-1.703-2.726-2.812-4.494-3.327-1.764-0.524-3.626-0.406-5.587 0.353v0c-0.452 0.175-0.83 0.356-1.132 0.543-0.305 0.18-0.567 0.39-0.787 0.627v0c-0.072 0.083-0.12 0.137-0.146 0.161-0.034 0.02-0.063 0.035-0.087 0.044v0c-0.47-1.213-0.561-2.218-0.273-3.016 0.287-0.798 0.95-1.398 1.987-1.8v0c1.237-0.479 2.603-0.543 4.099-0.193 1.498 0.356 2.97 1.094 4.415 2.213v0c1.18 0.916 2.237 2.006 3.17 3.268 0.924 1.258 1.661 2.596 2.211 4.014v0c0.114 0.296 0.201 0.554 0.258 0.774 0.066 0.224 0.132 0.528 0.197 0.912v0c-1.541 0.16-3.469 0.358-5.784 0.596-2.321 0.24-3.876 0.409-4.664 0.506v0c-3.232 0.343-5.561 0.634-6.987 0.874-1.42 0.238-2.547 0.518-3.379 0.841v0c-1.038 0.402-1.729 0.892-2.074 1.469-0.347 0.572-0.368 1.253-0.062 2.043v0c0.514 1.327 1.235 2.168 2.163 2.523 0.922 0.357 2.361 0.48 4.316 0.368z" fill="#ffccea" data-fill-palette-color="primary"></path><path d="M137.474 247.454v0c1.189-0.861 2.477-1.548 3.864-2.061 1.394-0.514 2.766-0.804 4.116-0.869v0c0.168-0.008 0.356-0.011 0.564-0.008 0.201 0.003 0.496 0.008 0.884 0.015v0l-4.319 26.245c0.562 0.096 1.169 0.267 1.823 0.515 0.653 0.247 1.649 0.688 2.988 1.323v0c2.003 0.965 3.529 1.595 4.579 1.887 1.057 0.286 2.057 0.406 3 0.36v0c0.549-0.027 1.07-0.1 1.563-0.221 0.493-0.121 0.974-0.29 1.443-0.507v0c-0.11 1.748-0.476 3.151-1.099 4.211-0.629 1.054-1.425 1.604-2.388 1.65v0c-0.866 0.042-1.801-0.146-2.805-0.564-0.998-0.425-2.524-1.374-4.578-2.849v0c-2.357-1.726-4.175-2.839-5.456-3.341-1.281-0.508-2.513-0.734-3.695-0.676v0c-0.22 0.011-0.388 0.019-0.504 0.024-0.123 0.006-0.232 0.024-0.328 0.055v0l4.178-25.345c-1.609 0.758-2.813 1.833-3.614 3.226-0.801 1.392-1.156 3.029-1.064 4.908v0c0.022 0.459 0.07 0.855 0.144 1.188 0.075 0.34 0.194 0.661 0.358 0.964v0c0.05 0.095 0.082 0.161 0.097 0.2 0.014 0.032 0.022 0.06 0.023 0.086v0c-1.35 0.065-2.346-0.172-2.987-0.711-0.647-0.532-1-1.402-1.059-2.61v0c-0.058-1.208 0.287-2.433 1.037-3.674 0.756-1.248 1.834-2.388 3.235-3.421z" fill="#ffccea" data-fill-palette-color="primary"></path><path d="M250.905 175.518l-8.523-5.379c0.155 1.112 0.727 2.44 1.715 3.984 0.986 1.55 2.348 3.252 4.084 5.107v0c0.46-0.761 0.921-1.45 1.383-2.066 0.453-0.612 0.901-1.161 1.341-1.646zM240.95 166.59v0c0.175-0.473 0.389-0.932 0.643-1.377 0.256-0.45 0.529-0.825 0.819-1.125v0l23.048 14.568-1.805 4.888-11.371-7.165c-0.655 0.655-1.21 1.298-1.664 1.93-0.448 0.635-0.863 1.357-1.245 2.168v0c2.333 2.33 4.798 4.443 7.394 6.339 2.596 1.896 4.769 3.167 6.517 3.812v0c0.407 0.15 0.776 0.242 1.109 0.274 0.339 0.035 0.661 0.02 0.968-0.046v0c-0.636 1.724-1.369 2.805-2.2 3.243-0.837 0.436-1.865 0.429-3.085-0.021v0c-1.517-0.56-3.375-1.766-5.574-3.619-2.205-1.855-4.346-4.014-6.422-6.477v0c-0.353 1.18-0.502 2.145-0.448 2.896 0.058 0.759 0.311 1.335 0.758 1.728v0c0.034-0.091 0.187-0.141 0.459-0.151 0.275-0.016 0.524 0.018 0.749 0.101v0c0.388 0.143 0.64 0.443 0.755 0.899 0.117 0.45 0.074 0.948-0.128 1.494v0c-0.233 0.631-0.597 1.076-1.092 1.335-0.493 0.252-1.046 0.266-1.659 0.039v0c-1.177-0.435-1.923-1.461-2.236-3.08-0.319-1.621-0.114-3.418 0.614-5.39v0c0.085-0.231 0.188-0.489 0.307-0.776 0.122-0.293 0.27-0.611 0.445-0.953v0c-2.413-3.159-4.122-6.096-5.126-8.812-1.007-2.709-1.183-4.95-0.53-6.722z" fill="#ffccea" data-fill-palette-color="primary"></path><path d="M6.681 138.863c0-5.732 4.647-10.379 10.38-10.379 5.732 0 10.379 4.647 10.379 10.379 0 5.732-4.647 10.379-10.379 10.379-5.732 0-10.379-4.647-10.38-10.379z" fill="#ffccea" data-fill-palette-color="primary"></path><path d="M251.222 138.863c0-5.732 4.647-10.379 10.38-10.379 5.732 0 10.379 4.647 10.379 10.379 0 5.732-4.647 10.379-10.379 10.379-5.732 0-10.379-4.647-10.38-10.379z" fill="#ffccea" data-fill-palette-color="primary"></path></g></svg></g></svg></g></svg></g></svg></g><defs></defs></svg><rect width="280" height="280" fill="none" stroke="none" visibility="hidden"></rect></g></svg></g></svg>